<?xml version="1.0" encoding="UTF-8" standalone="no"?>
<svg
   width="16"
   height="16"
   fill="currentColor"
   class="bi bi-box-arrow-left"
   viewBox="0 0 16 16"
   version="1.1"
   id="svg6"
   sodipodi:docname="box-arrow-left.svg"
   inkscape:version="1.2 (dc2aedaf03, 2022-05-15)"
   xmlns:inkscape="http://www.inkscape.org/namespaces/inkscape"
   xmlns:sodipodi="http://sodipodi.sourceforge.net/DTD/sodipodi-0.dtd"
   xmlns="http://www.w3.org/2000/svg"
   xmlns:svg="http://www.w3.org/2000/svg">
  <defs
     id="defs10" />
  <sodipodi:namedview
     id="namedview8"
     pagecolor="#ffffff"
     bordercolor="#000000"
     borderopacity="0.25"
     inkscape:showpageshadow="2"
     inkscape:pageopacity="0.0"
     inkscape:pagecheckerboard="0"
     inkscape:deskcolor="#d1d1d1"
     showgrid="false"
     inkscape:zoom="53.9375"
     inkscape:cx="7.99073"
     inkscape:cy="8.02781"
     inkscape:window-width="1920"
     inkscape:window-height="1017"
     inkscape:window-x="1912"
     inkscape:window-y="-8"
     inkscape:window-maximized="1"
     inkscape:current-layer="svg6" />
  <path
     fill-rule="evenodd"
     d="M6 12.5a.5.5 0 0 0 .5.5h8a.5.5 0 0 0 .5-.5v-9a.5.5 0 0 0-.5-.5h-8a.5.5 0 0 0-.5.5v2a.5.5 0 0 1-1 0v-2A1.5 1.5 0 0 1 6.5 2h8A1.5 1.5 0 0 1 16 3.5v9a1.5 1.5 0 0 1-1.5 1.5h-8A1.5 1.5 0 0 1 5 12.5v-2a.5.5 0 0 1 1 0v2z"
     id="path2" />
  <path
     fill-rule="evenodd"
     d="M.146 8.354a.5.5 0 0 1 0-.708l3-3a.5.5 0 1 1 .708.708L1.707 7.5H10.5a.5.5 0 0 1 0 1H1.707l2.147 2.146a.5.5 0 0 1-.708.708l-3-3z"
     id="path4" />
  <path
     style="fill:#ffffff;stroke-width:0.03708"
     d="M 3.3464658,11.465309 C 3.260234,11.438378 3.1434822,11.326189 1.6731986,9.857447 0.50583501,8.6913072 0.08264364,8.2572887 0.0544269,8.1972602 0.00281147,8.0874531 0.00277016,7.9126348 0.05433373,7.802938 0.08242417,7.7431783 0.50805708,7.3066282 1.6731055,6.1426461 L 3.2537659,4.5634323 3.3631865,4.5321892 c 0.1372314,-0.039184 0.245317,-0.026216 0.371337,0.044551 0.2258662,0.1268373 0.3153867,0.396668 0.2069295,0.6237233 -0.03508,0.073439 -0.2719494,0.3199647 -1.1400275,1.1864996 -0.6026612,0.6015898 -1.0957476,1.1000159 -1.0957476,1.1076136 0,0.0076 2.0085747,0.015967 4.4634994,0.018599 l 4.4634997,0.00479 0.07665,0.040999 c 0.36771,0.1966753 0.36771,0.6854057 0,0.882081 l -0.07665,0.040999 -4.4634997,0.00479 c -2.4549247,0.00263 -4.4634994,0.011001 -4.4634994,0.018599 0,0.0076 0.4930864,0.5060238 1.0957476,1.1076136 1.1824026,1.1802997 1.1842262,1.1824127 1.1843849,1.3718987 1.113e-4,0.128608 -0.028142,0.217635 -0.097792,0.30818 -0.1233832,0.160399 -0.3493063,0.232234 -0.5415522,0.172193 z"
     id="path863" />
  <path
     style="fill:#f2c572;stroke-width:0.03708;fill-opacity:1"
     d="M 6.3059603,13.977846 C 6.0606644,13.945679 5.8063029,13.837247 5.5886874,13.672076 5.2947694,13.448993 5.0988141,13.120565 5.033372,12.741347 5.0088543,12.599275 5.0052176,12.404211 5.0097305,11.473282 l 0.00533,-1.100165 0.05562,-0.100845 c 0.08624,-0.156362 0.2477597,-0.256433 0.4184817,-0.259274 0.131357,-0.0022 0.2548608,0.04908 0.3518102,0.146026 0.1511336,0.151134 0.1474369,0.117644 0.1474369,1.335699 0,1.18974 -6.3e-5,1.189054 0.1221714,1.331857 0.037063,0.0433 0.1102519,0.101336 0.1626425,0.12897 l 0.095256,0.05024 h 4.1251448 4.125145 l 0.08343,-0.03878 c 0.124345,-0.0578 0.196121,-0.126985 0.253977,-0.244803 l 0.05193,-0.105754 V 8 3.3835458 L 14.956179,3.277792 C 14.898323,3.1599737 14.826547,3.0907913 14.702202,3.0329889 l -0.08343,-0.038783 H 10.493627 6.368482 l -0.095256,0.050244 c -0.052391,0.027634 -0.1255798,0.08567 -0.1626425,0.12897 -0.1222343,0.1428033 -0.1221714,0.1421169 -0.1221714,1.3318568 0,1.2180553 0.0037,1.1845652 -0.1474369,1.3356989 C 5.607163,6.074788 5.2316526,6.0195806 5.0706837,5.7277276 L 5.0150637,5.626883 5.0097305,4.5267178 C 5.0052176,3.5957886 5.0088543,3.400725 5.033372,3.2586528 5.1359415,2.6642937 5.5637006,2.2057505 6.1645423,2.0460765 6.289253,2.0129346 6.4583461,2.0115875 10.493627,2.0115875 h 4.199305 l 0.156929,0.041828 c 0.573496,0.1528575 0.984385,0.5812426 1.11576,1.163271 0.03733,0.1653896 0.03733,9.4012375 0,9.5666275 -0.130051,0.576162 -0.533454,1.000397 -1.10583,1.162941 l -0.148319,0.04212 -4.143685,0.0025 c -2.2790269,0.0014 -4.1968488,-0.0045 -4.2618267,-0.01301 z"
     id="path865" />
  <path
     style="fill:#f2a663;fill-opacity:1;stroke-width:0.03708"
     d="M 3.3436531,11.449371 C 3.2556342,11.411076 2.7970112,10.967584 1.5469089,9.7119062 0.05678099,8.2151325 0.06412913,8.2229951 0.0380608,8.0974246 0.02281585,8.0239902 0.02287394,7.9723465 0.03828231,7.9004998 0.05789627,7.8090431 0.07927783,7.7820153 0.38945153,7.4565974 0.57110752,7.2660134 1.2940636,6.5374978 1.9960206,5.8376739 3.2001346,4.6372187 3.2772259,4.564093 3.3593107,4.5445105 c 0.1413762,-0.033727 0.2222296,-0.0254 0.3439512,0.035425 0.2371265,0.1184935 0.3346948,0.3792875 0.2261813,0.6045681 -0.033268,0.069065 -0.298101,0.3465277 -1.1335871,1.187643 -0.599598,0.603638 -1.0901782,1.1049246 -1.0901782,1.1139705 0,0.020088 3.363113,0.041113 6.5764143,0.041113 2.5991828,0 2.3788358,-0.010884 2.5291648,0.124929 C 10.924826,7.7547625 10.965295,7.8461477 10.965295,8 c 0,0.1538523 -0.04047,0.2452375 -0.154038,0.3478404 -0.150352,0.1358339 0.0719,0.1249281 -2.5461416,0.1249381 -3.2001762,1.22e-5 -6.5594375,0.020958 -6.5594375,0.040899 0,0.00893 0.482029,0.5018771 1.0711755,1.0954306 0.5891465,0.5935539 1.0980689,1.1202479 1.1309386,1.1704319 0.052331,0.0799 0.059763,0.106725 0.059763,0.215728 0,0.100047 -0.010142,0.144007 -0.051666,0.223936 -0.1041501,0.200478 -0.3828353,0.312572 -0.5722359,0.230167 z"
     id="path1669" />
  <path
     style="fill:#f26e50;fill-opacity:1;stroke-width:0.03708"
     d="m 6.2736908,13.960624 c -0.3288064,-0.04819 -0.717937,-0.276412 -0.9271155,-0.543752 -0.1114989,-0.1425 -0.227214,-0.367361 -0.2783294,-0.540858 -0.029524,-0.100212 -0.033402,-0.2295 -0.039113,-1.304125 l -0.00634,-1.192885 0.046989,-0.08018 c 0.1066149,-0.181925 0.2434218,-0.267618 0.4283158,-0.268288 0.2154075,-7.81e-4 0.4141901,0.149007 0.4516414,0.340325 0.010223,0.05223 0.023935,0.566336 0.030469,1.142466 0.00653,0.576129 0.01982,1.085052 0.029523,1.130938 0.024752,0.117056 0.095718,0.210902 0.2245283,0.296918 l 0.1106379,0.07388 h 4.1421887 4.142188 l 0.08983,-0.04552 c 0.114025,-0.05778 0.194982,-0.138738 0.252763,-0.252764 l 0.04552,-0.08982 V 8 3.3730431 l -0.04552,-0.089825 C 14.914082,3.1691923 14.833125,3.0882353 14.7191,3.0304543 L 14.62927,2.9849363 H 10.487086 6.3448974 L 6.2342595,3.0588174 C 6.1054493,3.1448336 6.0344832,3.2386797 6.0097312,3.3557358 6.0000283,3.4016222 5.986743,3.9105446 5.9802084,4.4866744 5.9733346,5.0927155 5.9600865,5.576163 5.9487734,5.6337924 5.9127808,5.8171406 5.711539,5.9686595 5.5029451,5.9694654 5.3220417,5.9701644 5.191295,5.8949658 5.0889621,5.7313652 L 5.0243337,5.6280432 V 4.4931015 c 0,-1.2188786 0.00184,-1.2470651 0.098584,-1.5136023 C 5.1935237,2.7849808 5.2798309,2.6554123 5.4600232,2.47342 5.6699521,2.2613939 5.8429084,2.1574173 6.1460023,2.0610282 c 0.083377,-0.026515 0.5175508,-0.030079 4.3170587,-0.035435 4.223447,-0.00595 4.224388,-0.00595 4.364218,0.032416 0.545842,0.1497493 0.933227,0.5216276 1.101453,1.0573602 l 0.04346,0.1383964 V 8 12.746234 l -0.04346,0.138397 c -0.163814,0.521681 -0.523693,0.87815 -1.055993,1.045983 l -0.153911,0.04853 -4.175173,-0.0023 c -2.2963452,-0.0013 -4.217829,-0.0086 -4.2699642,-0.01621 z"
     id="path2474" />
  <path
     style="fill:#f2a663;fill-opacity:1;stroke-width:0.03708"
     d="M 3.4164552,11.457253 C 3.3258371,11.437226 3.2855066,11.40504 2.9415257,11.078234 2.5038135,10.662376 0.27025776,8.4161066 0.15311989,8.2739556 -0.00433763,8.0828754 -0.00437516,7.9178138 0.15299513,7.7252861 0.32331519,7.5169155 3.2491168,4.6062425 3.3214578,4.5732069 3.620005,4.4368705 4.0130681,4.7371557 3.9585387,5.0599124 3.9516872,5.1004654 3.9218266,5.1702636 3.8921815,5.2150195 3.8625363,5.2597755 3.3586711,5.783732 2.7724807,6.3793672 2.1862906,6.9750027 1.7064548,7.467555 1.7061791,7.4739282 c -2.757e-4,0.00637 0.026614,0.017501 0.059754,0.024728 0.03314,0.00723 2.0208575,0.020213 4.4171495,0.028857 2.9098228,0.010497 4.3876834,0.022178 4.4495944,0.03517 0.07674,0.016104 0.109299,0.037048 0.189135,0.1216777 C 10.922653,7.7912564 10.95692,7.8713103 10.95692,8 c 0,0.1286897 -0.03427,0.2087436 -0.135108,0.3156388 -0.07989,0.084682 -0.112344,0.1055522 -0.189135,0.1216139 -0.06175,0.012915 -1.5505672,0.024491 -4.4588647,0.034671 -2.4013905,0.0084 -4.3894711,0.021372 -4.417957,0.028816 -0.028486,0.00744 -0.049343,0.020512 -0.04635,0.029039 0.00299,0.00853 0.385553,0.4017377 0.8501323,0.8738013 1.1065847,1.124411 1.3248414,1.352746 1.3623257,1.425233 0.044073,0.08523 0.040436,0.270414 -0.00714,0.363676 -0.094207,0.184661 -0.3194265,0.304312 -0.498366,0.264764 z"
     id="path4015" />
  <path
     style="fill:#f2a663;fill-opacity:1;stroke-width:0.03708"
     d="m 9.9096176,13.960759 -3.7079954,-0.0094 -0.1301353,-0.04842 C 5.5752602,13.718256 5.2738947,13.416233 5.0930781,12.922364 c -0.035408,-0.09671 -0.038052,-0.164606 -0.05127,-1.316339 l -0.013936,-1.214368 0.045594,-0.07919 c 0.1052004,-0.182718 0.2374462,-0.266117 0.421983,-0.266117 0.2020138,0 0.3911198,0.127295 0.4358428,0.293383 0.010721,0.03982 0.02724,0.520028 0.037823,1.099544 0.010334,0.565872 0.023656,1.0783 0.029604,1.13873 0.017197,0.174716 0.081051,0.270703 0.2581923,0.38812 l 0.073829,0.04894 4.1625568,-1.67e-4 4.162556,-1.67e-4 0.09477,-0.05436 c 0.103929,-0.05961 0.174963,-0.134681 0.230566,-0.243673 0.03561,-0.06982 0.03619,-0.145463 0.03619,-4.716701 0,-4.5712381 -5.8e-4,-4.6468791 -0.03619,-4.7166871 -0.0556,-0.1089912 -0.126637,-0.1840638 -0.230566,-0.2436728 l -0.09477,-0.054356 -4.162556,-1.74e-4 -4.1625568,-1.739e-4 -0.073829,0.048937 C 6.0797695,3.1512905 6.0159156,3.247277 5.9987187,3.4219928 5.9927707,3.4824228 5.979449,3.9948513 5.969115,4.5607225 5.9586857,5.1318077 5.9419537,5.6206713 5.9315091,5.6594596 5.8868739,5.825222 5.6960593,5.9536501 5.49441,5.9536501 5.3259964,5.9536501 5.228678,5.9030111 5.1241116,5.7609678 5.0791659,5.6999134 5.0369816,5.6284021 5.0303686,5.602054 5.0115881,5.5272265 5.040785,3.3793743 5.0623912,3.2463353 5.0876507,3.0908011 5.1587601,2.8898495 5.2333225,2.7632922 5.3164766,2.6221517 5.6195727,2.323576 5.7662123,2.2383498 5.832339,2.1999173 5.9531866,2.1415164 6.0347625,2.10857 L 6.1830823,2.048667 h 4.3105447 4.310544 l 0.156525,0.060263 c 0.233521,0.089907 0.400822,0.1972644 0.568125,0.3645668 0.175762,0.1757621 0.281354,0.3451493 0.370312,0.5940426 l 0.064,0.1790592 -0.0047,4.7776277 -0.0047,4.7776277 -0.06643,0.170124 c -0.09546,0.244468 -0.172266,0.363808 -0.350718,0.544952 -0.189077,0.191929 -0.348257,0.290302 -0.630774,0.389816 l -0.205531,0.0724 -0.541292,-0.0045 c -0.29771,-0.0025 -2.209889,-0.0087 -4.2492864,-0.01391 z"
     id="path4763" />
  <path
     style="fill:#f2c572;stroke-width:0.03708"
     d="M 3.3880488,11.449478 C 3.3497374,11.435963 3.270479,11.384595 3.211919,11.335328 3.0634173,11.210391 0.70550721,8.8622411 0.36583457,8.5010236 0.21264376,8.3381162 0.07600501,8.1777817 0.06219289,8.1447245 c -0.03217218,-0.076999 -0.03217218,-0.2124503 0,-0.289449 C 0.10195785,7.7601046 0.54911151,7.2976686 1.9490937,5.903887 2.761862,5.0947183 3.2792879,4.5931733 3.3214578,4.5736437 3.4228083,4.5267064 3.5791214,4.5327338 3.6877236,4.5877667 3.9234002,4.707193 4.0262537,4.969512 3.918844,5.1772193 3.8827343,5.2470477 3.6791616,5.4631889 3.023817,6.1275047 2.7220155,6.4334376 2.2998841,6.8621454 2.0857474,7.0801886 l -0.3893395,0.3964421 0.05562,0.016936 c 0.032222,0.00981 1.8923556,0.023854 4.4217845,0.033381 2.9010992,0.010927 4.3972696,0.022945 4.4588646,0.035817 0.0768,0.01605 0.109236,0.0369 0.189135,0.1215965 C 10.922653,7.7912564 10.95692,7.8713103 10.95692,8 c 0,0.1286897 -0.03427,0.2087436 -0.135108,0.3156388 -0.07994,0.084741 -0.11229,0.1055287 -0.189135,0.1215415 -0.0614,0.012795 -1.563628,0.024891 -4.4495947,0.035828 -2.396292,0.00908 -4.3817356,0.021593 -4.4120969,0.027804 -0.030361,0.00621 -0.058984,0.015074 -0.063606,0.019696 -0.00462,0.00462 0.1662212,0.1855429 0.3796519,0.4020457 1.636425,1.659979 1.7901293,1.819619 1.8344082,1.905245 0.044603,0.08625 0.041253,0.270854 -0.00662,0.36469 -0.1009896,0.197956 -0.3498977,0.319387 -0.5267724,0.256989 z"
     id="path864" />
  <path
     style="fill:#f2c572;stroke-width:0.03708"
     d="m 14.607957,13.972291 c -0.0042,-0.0038 -1.901031,-0.01255 -4.215071,-0.01952 L 6.1855403,13.940112 6.0267215,13.874761 C 5.7992434,13.781159 5.6091979,13.657334 5.4600232,13.505524 5.3155849,13.358535 5.2389841,13.240352 5.1399486,13.011699 l -0.066799,-0.154225 -0.013885,-0.621089 c -0.00764,-0.341599 -0.014449,-0.900691 -0.015138,-1.242426 l -0.00125,-0.621337 0.06623,-0.09835 c 0.1249849,-0.185592 0.3137844,-0.2579 0.5182149,-0.198471 0.1218489,0.03542 0.2566608,0.148309 0.2848776,0.238545 0.021163,0.06768 0.033118,0.371245 0.05863,1.488739 0.013701,0.600161 0.024958,0.822184 0.045127,0.8901 0.026311,0.0886 0.1045206,0.180738 0.2391553,0.281747 l 0.053485,0.04013 h 4.1791856 c 3.746075,0 4.184969,-0.003 4.234992,-0.02886 0.07906,-0.04088 0.193789,-0.148364 0.243221,-0.227858 l 0.04212,-0.06773 V 8 3.3093859 l -0.04212,-0.067733 C 14.916559,3.1621591 14.801832,3.0546798 14.72277,3.0137951 14.672747,2.9879271 14.233853,2.9849363 10.487778,2.9849363 H 6.3085927 l -0.053485,0.040127 C 6.1204728,3.1260721 6.0422636,3.2182097 6.0159522,3.3068098 5.9957831,3.3747265 5.9845269,3.5967493 5.9708255,4.1969105 5.9453137,5.3144043 5.9333586,5.6179714 5.9121958,5.6856491 5.8885403,5.7612984 5.7555855,5.8837484 5.662403,5.9157058 5.5538959,5.9529187 5.3777566,5.9465632 5.2914284,5.9023203 5.2504807,5.8813347 5.1819946,5.8166393 5.1338511,5.7534648 5.0667427,5.6654046 5.0462932,5.6214161 5.0373465,5.5458751 5.0311028,5.4931565 5.033896,4.9608395 5.0435536,4.3629486 5.0624025,3.1960417 5.0639948,3.1774783 5.1669822,2.9240249 5.2302027,2.7684383 5.3029018,2.6675252 5.4776816,2.4927453 5.6633317,2.3070953 5.7614069,2.2394923 5.9928767,2.1376227 l 0.1824653,-0.080303 4.320468,4.616e-4 4.320469,4.616e-4 0.152109,0.062966 c 0.182953,0.075734 0.266479,0.1227717 0.401253,0.2259688 0.246142,0.1884723 0.3941,0.3954764 0.53144,0.7435256 l 0.04971,0.1259827 -0.0054,4.801084 -0.0054,4.801084 -0.07204,0.176368 c -0.09555,0.233946 -0.174315,0.349667 -0.367281,0.539632 -0.179438,0.176648 -0.336313,0.269637 -0.640874,0.379884 -0.164356,0.05949 -0.23213,0.07499 -0.251786,0.05755 z"
     id="path866" />
</svg>
