<?xml version="1.0" encoding="UTF-8" standalone="no"?>
<svg
   width="16"
   height="16"
   fill="currentColor"
   class="bi bi-person-fill"
   viewBox="0 0 16 16"
   version="1.1"
   id="svg4"
   sodipodi:docname="person-fill.svg"
   inkscape:version="1.2 (dc2aedaf03, 2022-05-15)"
   xmlns:inkscape="http://www.inkscape.org/namespaces/inkscape"
   xmlns:sodipodi="http://sodipodi.sourceforge.net/DTD/sodipodi-0.dtd"
   xmlns="http://www.w3.org/2000/svg"
   xmlns:svg="http://www.w3.org/2000/svg">
  <defs
     id="defs8" />
  <sodipodi:namedview
     id="namedview6"
     pagecolor="#ffffff"
     bordercolor="#000000"
     borderopacity="0.25"
     inkscape:showpageshadow="2"
     inkscape:pageopacity="0.0"
     inkscape:pagecheckerboard="0"
     inkscape:deskcolor="#d1d1d1"
     showgrid="false"
     inkscape:zoom="53.9375"
     inkscape:cx="7.99073"
     inkscape:cy="6.5260718"
     inkscape:window-width="1920"
     inkscape:window-height="1017"
     inkscape:window-x="1912"
     inkscape:window-y="-8"
     inkscape:window-maximized="1"
     inkscape:current-layer="svg4" />
  <path
     d="M3 14s-1 0-1-1 1-4 6-4 6 3 6 4-1 1-1 1H3Zm5-6a3 3 0 1 0 0-6 3 3 0 0 0 0 6Z"
     id="path2" />
  <path
     style="fill:#ffffff;stroke-width:0.03708;fill-opacity:1"
     d="M 7.6570104,7.9705162 C 6.7717085,7.8565616 6.0045741,7.385504 5.5151853,6.6553316 4.8385927,5.6458495 4.8436393,4.3513606 5.5281683,3.3251306 5.6934961,3.0772751 6.032166,2.7321726 6.2850521,2.5538708 7.1625303,1.9351893 8.3160651,1.8406595 9.2947256,2.3072342 c 0.581333,0.2771495 1.1099634,0.8039376 1.3930804,1.3882249 0.398365,0.8221305 0.401203,1.7625504 0.0078,2.589073 -0.49693,1.0440636 -1.5734687,1.7176942 -2.7229427,1.703847 -0.1073357,-0.00129 -0.2493855,-0.00933 -0.3156659,-0.017863 z"
     id="path1587" />
  <path
     style="fill:#ffffff;fill-opacity:1;stroke-width:0.03708"
     d="M 2.9015064,13.984549 C 2.4847207,13.926053 2.1862976,13.703348 2.0644213,13.359856 1.9393653,13.007403 2.0446837,12.372961 2.3270342,11.777865 3.17271,9.995478 5.1919616,9.0104287 8,9.0104287 c 1.794431,0 3.247194,0.3901477 4.321668,1.1606083 0.921432,0.660721 1.544297,1.659544 1.657377,2.657764 0.06517,0.575305 -0.180737,0.96238 -0.714934,1.125351 -0.104928,0.03201 -0.344986,0.03366 -5.2084911,0.03588 -2.8041715,0.0013 -5.1235226,-0.0012 -5.1541135,-0.0055 z"
     id="path1796" />
  <path
     style="fill:#ffffff;fill-opacity:1;stroke-width:0.03708"
     d=""
     id="path1804" />
  <path
     style="fill:#ffffff;fill-opacity:1;stroke-width:0.03708"
     d=""
     id="path1806" />
  <path
     style="fill:#f2a663;stroke-width:0.03708"
     d="M 7.6384705,7.9609383 C 6.9100718,7.8280389 6.4050336,7.5830076 5.9465657,7.1400703 5.7211036,6.9222457 5.5733712,6.7362722 5.4244652,6.4828216 5.0003299,5.7609077 4.9083054,4.8716366 5.1751879,4.0739504 5.3473773,3.5592926 5.6628918,3.0922361 6.0799388,2.7346466 6.7769028,2.1370471 7.7022737,1.9005021 8.6118192,2.0874426 c 0.3595427,0.073897 0.793483,0.2647198 1.1028072,0.4849522 0.2260661,0.1609542 0.5501326,0.4853687 0.7087426,0.7095025 0.24174,0.3416081 0.408285,0.7246874 0.499598,1.1491572 0.03559,0.1654509 0.04188,0.2503247 0.04188,0.5654693 0,0.3155828 -0.0063,0.3997882 -0.04199,0.5654692 -0.13436,0.6229355 -0.38817,1.092831 -0.826573,1.5302927 -0.4346046,0.4336699 -0.8706022,0.6757449 -1.4743003,0.8185615 -0.1670005,0.039507 -0.2497196,0.047161 -0.5663628,0.052406 -0.2039397,0.00338 -0.391657,0.00234 -0.4171494,-0.00231 z"
     id="path861" />
  <path
     style="fill:#f2a663;stroke-width:0.03708"
     d="M 2.771953,13.949535 C 2.3826051,13.854297 2.1009556,13.565242 2.0388162,13.197122 1.9616381,12.739911 2.1755157,12.000776 2.5691134,11.364478 2.8701506,10.877816 3.3203107,10.422625 3.8470452,10.072264 4.7151333,9.4948511 5.8436754,9.151906 7.2183824,9.0477713 c 0.3477942,-0.026346 1.2383407,-0.02661 1.5788366,-4.692e-4 2.173145,0.1668399 3.74254,0.943199 4.613196,2.2820879 0.402808,0.619434 0.646219,1.476695 0.543166,1.912954 -0.07462,0.315909 -0.270456,0.535346 -0.595528,0.667315 l -0.14832,0.06021 -5.1633831,0.0034 c -4.4794568,0.003 -5.178088,-1.89e-4 -5.2743969,-0.02375 z"
     id="path863" />
  <path
     style="fill:#f2c572;stroke-width:0.03708;fill-opacity:1"
     d="M 7.4226392,7.9086713 C 6.8037865,7.7616554 6.3746905,7.5326482 5.9443234,7.1196987 5.512842,6.7056799 5.2366962,6.2129227 5.0973454,5.608343 5.0482515,5.3953468 5.0274975,4.8431464 5.0599645,4.6137531 5.171361,3.8266912 5.6112933,3.0898221 6.2572422,2.6083605 6.4435183,2.4695186 6.8647744,2.2523647 7.0896119,2.179281 7.4145987,2.0736438 7.5798046,2.0501221 8,2.0496618 c 0.4239016,-4.643e-4 0.536472,0.015205 0.8806489,0.1225859 0.2444097,0.076254 0.6637497,0.2877945 0.8528389,0.4302238 0.2016182,0.1518666 0.5087882,0.4589597 0.6589072,0.6587421 0.207241,0.2758019 0.38922,0.664442 0.495244,1.0576588 0.05667,0.2101649 0.05777,0.2222634 0.05898,0.6498414 10e-4,0.3538069 -0.0051,0.4653065 -0.03236,0.5932792 C 10.829709,5.9585346 10.646937,6.3798789 10.42407,6.6920324 10.270133,6.9076351 9.947177,7.2354965 9.7242178,7.4025111 9.5386614,7.541508 9.1542574,7.7402273 8.9269988,7.8146368 8.5816228,7.9277204 8.510811,7.9382875 8.0463499,7.9460533 c -0.4100132,0.00686 -0.44677,0.00465 -0.6237107,-0.037382 z"
     id="path864" />
  <path
     style="fill:#f2c572;fill-opacity:1;stroke-width:0.03708"
     d="M 2.8144973,13.942191 C 2.6500278,13.921079 2.4455779,13.814017 2.309095,13.677534 2.1120164,13.480456 2.0399771,13.294223 2.0396175,12.980896 c -6.469e-4,-0.563752 0.3297471,-1.390195 0.7831174,-1.95888 0.1615248,-0.202608 0.4715006,-0.515409 0.6701048,-0.676212 0.8625961,-0.6984124 2.03664,-1.1219786 3.5245415,-1.2715676 0.4161873,-0.041842 1.5715211,-0.041739 1.9837775,1.769e-4 0.7040557,0.071585 1.3503523,0.2061499 1.8866213,0.3928127 1.35429,0.4713978 2.343872,1.329358 2.812123,2.438092 0.168397,0.398734 0.260853,0.785135 0.260479,1.088619 -3.65e-4,0.296292 -0.06486,0.469722 -0.247131,0.664574 -0.09235,0.09872 -0.145336,0.135853 -0.30103,0.210951 l -0.188953,0.09114 -5.151611,-0.0024 c -2.8333859,-0.0013 -5.1991077,-0.0085 -5.2571597,-0.01598 z"
     id="path935" />
</svg>
